<svg id="Artboard_1" data-name="Artboard 1" xmlns="http://www.w3.org/2000/svg" viewBox="0 0 800 800"><defs><style>.cls-1,.cls-5,.cls-6{fill:none;}.cls-1,.cls-2,.cls-5,.cls-6{stroke:#e95354;}.cls-1,.cls-2,.cls-6{stroke-linecap:round;stroke-linejoin:round;}.cls-1,.cls-2,.cls-5{stroke-width:2px;}.cls-2,.cls-4{fill:#f0ede6;}.cls-3{fill:#e95354;}.cls-5{stroke-miterlimit:10;}.cls-6{stroke-width:3px;}.cls-7{fill:#eae4da;}</style></defs><title>phone</title><path class="cls-1" d="M292.19,148.3c0-.05,0-.11,0-.16a10.1,10.1,0,0,0-20.19,0,10.1,10.1,0,0,0-20.19,0s-2,13.4,20.18,27.85C292.9,162.38,292.32,149.95,292.19,148.3Z"/><circle class="cls-1" cx="549.75" cy="216.96" r="20.06"/><polyline class="cls-1" points="549.75 202.95 549.75 216.96 538.51 216.96"/><rect class="cls-1" x="520.53" y="258.64" width="52.44" height="36.55"/><path class="cls-1" d="M520.53,258.64l22.27,19.44a6,6,0,0,0,7.9,0L573,258.64"/><line class="cls-1" x1="572.97" y1="295.18" x2="552.24" y2="277.24"/><line class="cls-1" x1="520.49" y1="295.18" x2="541.22" y2="277.24"/><polygon class="cls-1" points="540.68 316.47 545.96 332.7 563.02 332.7 549.22 342.74 554.49 358.97 540.68 348.94 526.88 358.97 532.15 342.74 518.35 332.7 535.41 332.7 540.68 316.47"/><rect class="cls-1" x="169.62" y="237.52" width="58.29" height="36.04" rx="4.52" ry="4.52"/><circle class="cls-1" cx="198.76" cy="255.55" r="12.42"/><polygon class="cls-1" points="185.38 237.52 191.59 231.07 207.36 231.07 213.33 237.52 185.38 237.52"/><rect class="cls-1" x="175.83" y="232.74" width="6.21" height="4.78"/><polygon class="cls-1" points="607.17 527.48 607.17 539.89 616.09 539.89 626.17 548.04 626.17 519.34 616.67 527.5 607.17 527.48"/><path class="cls-1" d="M635.2,525.35s6.59,8.34,0,16.68"/><path class="cls-1" d="M643.13,521.47s8.88,12.22,0,24.43"/><path class="cls-1" d="M650.26,515.26s13.09,18.42,0,36.84"/><polyline class="cls-1" points="302.32 124.83 322.51 106.57 312.41 96.95 312.41 134.45 322.51 123.39 302.32 104.64"/><path class="cls-1" d="M408.7,146a10.88,10.88,0,0,0-15.39,0l7.7,7.7Z"/><path class="cls-1" d="M401,135.54a18.08,18.08,0,0,1,12.82,5.32l5.13-5.13a25.36,25.36,0,0,0-35.9,0l5.13,5.13A18.08,18.08,0,0,1,401,135.54Z"/><path class="cls-1" d="M401,121.63a32,32,0,0,1,22.65,9.4l5.13-5.13a39.24,39.24,0,0,0-55.56,0l5.13,5.13A32,32,0,0,1,401,121.63Z"/><rect class="cls-1" x="231.81" y="366.16" width="47.24" height="64.59" rx="4.34" ry="4.34"/><rect class="cls-1" x="237.9" y="374.28" width="35.06" height="8.12"/><rect class="cls-1" x="237.9" y="388.67" width="9.13" height="9.13"/><rect class="cls-1" x="250.86" y="388.67" width="9.13" height="9.13"/><rect class="cls-1" x="237.9" y="401.77" width="9.13" height="9.13"/><rect class="cls-1" x="250.86" y="401.77" width="9.13" height="9.13"/><rect class="cls-1" x="237.9" y="415.06" width="9.13" height="9.13"/><rect class="cls-1" x="250.86" y="415.06" width="9.13" height="9.13"/><rect class="cls-1" x="263.83" y="388.67" width="9.13" height="9.13"/><rect class="cls-1" x="263.69" y="401.77" width="9.41" height="22.42"/><path class="cls-1" d="M252.06,278.09S249.5,259,263.83,259c13.63,0,11.17,19.1,11.17,19.1"/><rect class="cls-2" x="245.32" y="276.08" width="36.53" height="27.59"/><path class="cls-1" d="M267.69,285.74a4.13,4.13,0,1,0-5.66,3.83,1.62,1.62,0,0,0-.11.57v6.34a1.64,1.64,0,1,0,3.28,0v-6.34a1.61,1.61,0,0,0-.11-.57A4.13,4.13,0,0,0,267.69,285.74Z"/><circle class="cls-1" cx="608" cy="327.88" r="26.88"/><line class="cls-1" x1="608.02" y1="304.47" x2="608.02" y2="306.82"/><line class="cls-1" x1="603.97" y1="304.84" x2="604.38" y2="307.16"/><line class="cls-1" x1="600.05" y1="305.9" x2="600.85" y2="308.12"/><line class="cls-1" x1="596.37" y1="307.64" x2="597.55" y2="309.68"/><line class="cls-1" x1="593.05" y1="309.98" x2="594.57" y2="311.78"/><line class="cls-1" x1="590.19" y1="312.87" x2="591.99" y2="314.38"/><line class="cls-1" x1="587.87" y1="316.2" x2="589.91" y2="317.38"/><line class="cls-1" x1="586.17" y1="319.89" x2="588.38" y2="320.7"/><line class="cls-1" x1="585.13" y1="323.82" x2="587.45" y2="324.23"/><line class="cls-1" x1="584.79" y1="327.87" x2="587.15" y2="327.87"/><line class="cls-1" x1="585.16" y1="331.92" x2="587.48" y2="331.51"/><line class="cls-1" x1="586.23" y1="335.84" x2="588.44" y2="335.04"/><line class="cls-1" x1="587.96" y1="339.52" x2="590" y2="338.34"/><line class="cls-1" x1="590.31" y1="342.84" x2="592.11" y2="341.33"/><line class="cls-1" x1="593.19" y1="345.7" x2="594.71" y2="343.9"/><line class="cls-1" x1="596.53" y1="348.02" x2="597.71" y2="345.98"/><line class="cls-1" x1="600.22" y1="349.72" x2="601.03" y2="347.51"/><line class="cls-1" x1="604.15" y1="350.76" x2="604.56" y2="348.44"/><line class="cls-1" x1="608.2" y1="351.1" x2="608.2" y2="348.74"/><line class="cls-1" x1="612.25" y1="350.73" x2="611.84" y2="348.41"/><line class="cls-1" x1="616.17" y1="349.66" x2="615.36" y2="347.45"/><line class="cls-1" x1="619.85" y1="347.93" x2="618.67" y2="345.89"/><line class="cls-1" x1="623.17" y1="345.58" x2="621.65" y2="343.78"/><line class="cls-1" x1="626.03" y1="342.7" x2="624.22" y2="341.19"/><line class="cls-1" x1="628.35" y1="339.36" x2="626.31" y2="338.18"/><line class="cls-1" x1="630.05" y1="335.67" x2="627.84" y2="334.87"/><line class="cls-1" x1="631.09" y1="331.74" x2="628.77" y2="331.33"/><line class="cls-1" x1="631.42" y1="327.69" x2="629.07" y2="327.69"/><line class="cls-1" x1="631.05" y1="323.64" x2="628.74" y2="324.05"/><line class="cls-1" x1="629.99" y1="319.72" x2="627.77" y2="320.53"/><line class="cls-1" x1="628.25" y1="316.05" x2="626.22" y2="317.22"/><line class="cls-1" x1="625.91" y1="312.73" x2="624.11" y2="314.24"/><line class="cls-1" x1="623.03" y1="309.86" x2="621.51" y2="311.67"/><line class="cls-1" x1="619.69" y1="307.55" x2="618.51" y2="309.58"/><line class="cls-1" x1="616" y1="305.84" x2="615.19" y2="308.05"/><line class="cls-1" x1="612.07" y1="304.81" x2="611.66" y2="307.12"/><polygon class="cls-1" points="625.05 313.45 604.87 324 590.99 342.93 611.79 332.01 625.05 313.45"/><line class="cls-1" x1="611.79" y1="332.01" x2="604.87" y2="324"/><path class="cls-1" d="M556,579.93s15.19-4.56,29.24,0V536.13c-14.05-4.56-29.24,0-29.24,0Z"/><path class="cls-1" d="M556,579.93s-15.19-4.56-29.24,0V536.13c14.05-4.56,29.24,0,29.24,0Z"/><circle class="cls-1" cx="181.34" cy="187.08" r="17.4"/><line class="cls-1" x1="181.34" y1="179.17" x2="181.34" y2="194.59"/><line class="cls-1" x1="173.63" y1="186.88" x2="189.05" y2="186.88"/><circle class="cls-1" cx="178.93" cy="532.1" r="17.4"/><line class="cls-1" x1="171.22" y1="531.9" x2="186.65" y2="531.9"/><line class="cls-1" x1="456.37" y1="151.77" x2="456.37" y2="117.07"/><line class="cls-1" x1="446.91" y1="126.54" x2="456.37" y2="117.07"/><line class="cls-1" x1="465.83" y1="126.54" x2="456.37" y2="117.07"/><line class="cls-1" x1="474.85" y1="117.07" x2="474.85" y2="151.77"/><line class="cls-1" x1="484.31" y1="142.31" x2="474.85" y2="151.77"/><line class="cls-1" x1="465.38" y1="142.31" x2="474.85" y2="151.77"/><path class="cls-1" d="M619.35,259.28a18.06,18.06,0,0,1-15.22-27.82,18.07,18.07,0,1,0,21.4,26.71A18,18,0,0,1,619.35,259.28Z"/><path class="cls-1" d="M243.43,326.85H227.36L203.29,302.1a1,1,0,0,0-1.62,1l7.84,23.76H187v-3.49a2.63,2.63,0,0,0-2.09-2.64,2.53,2.53,0,0,0-2.95,2.48v17.37a2.63,2.63,0,0,0,2.09,2.64,2.53,2.53,0,0,0,2.95-2.48v-3.64H209.5l-7.9,24a.93.93,0,0,0,1.55.94l24.22-24.89h16.23a5.13,5.13,0,0,0,5-6.21A5.23,5.23,0,0,0,243.43,326.85Z"/><path class="cls-1" d="M348.19,131.36A11.78,11.78,0,1,0,360,143.15"/><polygon class="cls-3" points="348.19 126.78 348.19 137.91 357.03 132.35 348.19 126.78"/><path class="cls-1" d="M275.7,702.74a11.78,11.78,0,1,1,11.78,11.78"/><polygon class="cls-3" points="271.12 702.74 282.24 702.74 276.68 711.57 271.12 702.74"/><polyline class="cls-1" points="584.16 183.2 595.05 194.64 612.75 168.16"/><path class="cls-1" d="M559.64,511.44a23.91,23.91,0,1,0-24.93,0"/><path class="cls-1" d="M557.34,507.68a19.5,19.5,0,1,0-20.33,0"/><path class="cls-1" d="M539.3,503.92a15.09,15.09,0,1,1,15.73,0"/><path class="cls-1" d="M555,503.92a15.09,15.09,0,1,0-15.73,0"/><path class="cls-1" d="M552.72,500.14a10.67,10.67,0,1,0-11.1,0"/><path class="cls-1" d="M543.91,496.39a6.26,6.26,0,1,1,6.51,0"/><path class="cls-1" d="M550.43,496.39a6.26,6.26,0,1,0-6.51,0"/><circle class="cls-3" cx="547.17" cy="490.99" r="2.49"/><path class="cls-1" d="M540.68,122.17c-18.48,0-33.45,12.26-33.45,27.38,0,10.38,7.05,19.4,17.44,24,0,0-3.24,6.46-6.23,7.59,0,0,8.42-1.19,13.43-5.22a40.46,40.46,0,0,0,8.81,1c18.48,0,33.45-12.26,33.45-27.38S559.16,122.17,540.68,122.17Z"/><path class="cls-1" d="M266.54,556.21a19.75,19.75,0,1,0-30.75,16.39c-.1-1.25-.18-2.44-.21-3.5,0-.4,0-.78,0-1.14a16.24,16.24,0,1,1,22.4,0c0,.37,0,.74,0,1.14,0,1.05-.12,2.25-.21,3.5A19.74,19.74,0,0,0,266.54,556.21Z"/><path class="cls-1" d="M276.59,556.21a29.8,29.8,0,1,0-39.53,28.16c-.14-1.12-.31-2.47-.48-3.93a26.29,26.29,0,1,1,20.42,0c-.17,1.46-.34,2.81-.48,3.93A29.84,29.84,0,0,0,276.59,556.21Z"/><circle class="cls-1" cx="246.79" cy="554.11" r="7.01"/><path class="cls-1" d="M246.79,591.62a4.94,4.94,0,0,0,5.14-4.67s1.64-11.69,1.87-18-7-4.91-7-4.91-7.24-1.4-7,4.91,1.87,18,1.87,18A4.94,4.94,0,0,0,246.79,591.62Z"/><path class="cls-1" d="M570.87,393.34v24.6a3.44,3.44,0,0,1-2.89,3.4c-6.43,1.07-13.11,3.47-12,10.58,1.29,8.19,9.91,7.11,9.91,7.11,8.62,0,9.05-8.19,9.05-8.19V378.61a1,1,0,0,0-1.2-1l-37.32,8.1a1.26,1.26,0,0,0-1,1.27c.15,5.4.32,30,.13,38.27a3,3,0,0,1-2.54,2.92c-6.56,1-13.54,3.39-12.39,10.65,1.29,8.19,9.91,7.11,9.91,7.11,8.62,0,9.05-8.19,9.05-8.19V399.8Z"/><path class="cls-1" d="M228.06,166.94a1.24,1.24,0,0,0-1.34-.47c-2.66.75-10.58,3.86-9.06,13.86,1.82,12,24.15,42.36,50.15,46.36a1.29,1.29,0,0,0,.29,0,10.94,10.94,0,0,0,10.16-9.61,1.23,1.23,0,0,0-.59-1.22l-14.41-8.8a1.25,1.25,0,0,0-1.12-.09L254,210.3a1.24,1.24,0,0,1-1.18-.13c-2.5-1.75-12.83-9.31-18.62-19.06a1.25,1.25,0,0,1,0-1.25l4.21-7.53a1.25,1.25,0,0,0-.08-1.34Z"/><circle class="cls-1" cx="417.33" cy="71.05" r="16.59"/><path class="cls-2" d="M448.66,72.73l-.5,0a16.06,16.06,0,0,0-30.75,8.73,9.38,9.38,0,0,0,.76,18.73h30.49a13.74,13.74,0,0,0,0-27.48Z"/><path class="cls-1" d="M521,653.23s0-11-9-17.5-10-34.5,14.5-34.5,23.5,28,14.5,34.5-9,17.5-9,17.5Z"/><line class="cls-1" x1="517.91" y1="627.23" x2="535.07" y2="627.23"/><line class="cls-1" x1="526.49" y1="627.23" x2="526.49" y2="649.23"/><line class="cls-1" x1="520.49" y1="657.07" x2="532.16" y2="657.07"/><line class="cls-1" x1="521.91" y1="661.4" x2="530.74" y2="661.4"/><line class="cls-1" x1="523.74" y1="665.57" x2="528.91" y2="665.57"/><path class="cls-1" d="M643.09,221.95h0a8.49,8.49,0,0,1-8.47-8.47V190.55a8.49,8.49,0,0,1,8.47-8.47h0a8.49,8.49,0,0,1,8.47,8.47v22.93A8.49,8.49,0,0,1,643.09,221.95Z"/><path class="cls-1" d="M655.79,202v11.47a12.7,12.7,0,0,1-25.4,0v-11"/><line class="cls-1" x1="643.09" y1="226.18" x2="643.09" y2="234.87"/><line class="cls-1" x1="635.62" y1="234.87" x2="650.7" y2="234.87"/><polygon class="cls-1" points="303.63 623.9 316.96 623.9 303.63 610.57 303.63 623.9"/><polygon class="cls-1" points="303.63 610.57 274.29 610.57 274.29 666.57 316.96 666.57 316.96 623.9 303.63 610.57"/><circle class="cls-1" cx="642.16" cy="592.94" r="21.43"/><line class="cls-1" x1="642.16" y1="571.51" x2="642.16" y2="614.37"/><path class="cls-1" d="M639.12,614.15s-7-6.1-7-21.21,7-21.21,7-21.21"/><path class="cls-1" d="M645.54,614.15s7-6.1,7-21.21-7-21.21-7-21.21"/><line class="cls-1" x1="620.73" y1="592.94" x2="663.59" y2="592.94"/><path class="cls-1" d="M658.8,606.55c-3.4-1.82-8.81-3.71-16.65-3.71a35.17,35.17,0,0,0-16.27,3.52"/><path class="cls-1" d="M625.89,580.28c3.4,1.82,8.81,3.71,16.65,3.71a35.17,35.17,0,0,0,16.27-3.52"/><circle class="cls-1" cx="236.78" cy="633.56" r="17.66"/><polygon class="cls-1" points="236.78 622.21 230.05 643.65 236.78 637.76 243.29 643.65 236.78 622.21"/><line class="cls-1" x1="623.84" y1="385.49" x2="623.84" y2="410.17"/><circle class="cls-2" cx="623.84" cy="402.49" r="3.2"/><circle class="cls-1" cx="623.84" cy="402.49" r="22.67"/><path class="cls-1" d="M621.69,379.19v-2.47a2.34,2.34,0,0,1,2.33-2.33h0a2.34,2.34,0,0,1,2.33,2.33v2.47"/><rect class="cls-1" x="641.23" y="380.72" width="5.29" height="3.48" rx="1.13" ry="1.13" transform="translate(459.01 -343.26) rotate(45)"/><line class="cls-1" x1="642.64" y1="383.69" x2="639.86" y2="386.47"/><rect class="cls-1" x="444.75" y="688.87" width="13.26" height="10.36"/><rect class="cls-1" x="460.91" y="675.75" width="13.26" height="23.47"/><rect class="cls-1" x="477.08" y="648.92" width="13.26" height="50.31"/><rect class="cls-1" x="493.24" y="664.16" width="13.26" height="35.07"/><path class="cls-3" d="M506.5,704H444.75a1.24,1.24,0,0,1,0-2.49H506.5a1.24,1.24,0,0,1,0,2.49Z"/><circle class="cls-1" cx="363.03" cy="638.41" r="22.67"/><circle class="cls-1" cx="363.03" cy="638.41" r="14.17"/><circle class="cls-1" cx="363.03" cy="638.41" r="6.96"/><line class="cls-1" x1="363.03" y1="638.41" x2="379.05" y2="622.39"/><path class="cls-1" d="M189.38,641.39H177.71V616.6h-2.92v24.79H163.12a1.46,1.46,0,0,0,0,2.92h26.25a1.46,1.46,0,0,0,0-2.92Z"/><path class="cls-1" d="M204.87,608.7H147.63l.73-21.41a4.13,4.13,0,0,1,4.11-4.11H200a4.13,4.13,0,0,1,4.11,4.11Z"/><path class="cls-1" d="M144.71,611.68s1.34,3,3,3h55.54c1.64,0,3-3,3-3Z"/><path class="cls-1" d="M153.46,583.18v-3.34a4.07,4.07,0,0,1,4.07-4.07h6.38"/><path class="cls-1" d="M172.63,578.44h-5.89a2.83,2.83,0,0,1-2.83-2.83h0a2.83,2.83,0,0,1,2.83-2.83h5.89a2.83,2.83,0,0,1,2.83,2.83h0A2.83,2.83,0,0,1,172.63,578.44Z"/><rect class="cls-1" x="135.8" y="452.49" width="43.33" height="37.33" rx="6.22" ry="6.22"/><polygon class="cls-1" points="179.13 464.49 196.13 455.49 196.13 486.49 179.13 478.49 179.13 464.49"/><line class="cls-1" x1="192.96" y1="457.17" x2="192.96" y2="484.97"/><path class="cls-1" d="M380.24,701.2a4.45,4.45,0,0,1,4.45-4.45V684H325.64v12.75a4.45,4.45,0,1,1,0,8.9V718.4h59.05V705.65A4.45,4.45,0,0,1,380.24,701.2Z"/><line class="cls-1" x1="377" y1="686.99" x2="377" y2="715.41"/><line class="cls-1" x1="333.74" y1="686.99" x2="333.74" y2="715.41"/><path class="cls-1" d="M412.07,640.81v20.9h38.39v-20.9H453a1.21,1.21,0,0,0,.87-2l-22.33-23.23-23.06,23.23a1.2,1.2,0,0,0,.85,2Z"/><polygon class="cls-1" points="415.02 619.52 415.02 621.98 415.89 621.98 415.89 631.27 421.37 625.76 421.37 621.98 422.25 621.98 422.25 619.52 415.02 619.52"/><rect class="cls-1" x="425.38" y="644.31" width="11.75" height="17.4"/><rect class="cls-1" x="428.43" y="634.91" width="5.65" height="5.65" rx="1.56" ry="1.56"/><polyline class="cls-1" points="638.94 143.19 649.59 154.95 649.59 126.77"/><line class="cls-1" x1="649.59" y1="154.95" x2="659.57" y2="143.41"/><polyline class="cls-1" points="430.79 713.65 418.24 699.8 418.24 733"/><line class="cls-1" x1="418.24" y1="699.8" x2="406.48" y2="713.39"/><polyline class="cls-1" points="671.62 364.08 685.63 351.38 652.05 351.38"/><line class="cls-1" x1="685.63" y1="351.38" x2="671.88" y2="339.49"/><rect class="cls-1" x="164.9" y="387.28" width="38.01" height="38.01" rx="7.27" ry="7.27"/><circle class="cls-2" cx="200.61" cy="389.25" r="5.73"/><line class="cls-1" x1="553.1" y1="672.43" x2="589.97" y2="680.7"/><rect class="cls-1" x="548.31" y="680.7" width="50.72" height="36.59" rx="3.93" ry="3.93"/><circle class="cls-1" cx="590.61" cy="688.46" r="2.67"/><circle class="cls-1" cx="590.61" cy="698.08" r="2.67"/><path class="cls-1" d="M596.19,648.64h-14a8.86,8.86,0,0,1-8.83-8.83h0a8.86,8.86,0,0,1,8.83-8.83h14a8.86,8.86,0,0,1,8.83,8.83h0A8.86,8.86,0,0,1,596.19,648.64Z"/><circle class="cls-1" cx="596.02" cy="639.81" r="9.01"/><path class="cls-1" d="M582.19,606.15h14A8.86,8.86,0,0,1,605,615h0a8.86,8.86,0,0,1-8.83,8.83h-14a8.86,8.86,0,0,1-8.83-8.83h0A8.86,8.86,0,0,1,582.19,606.15Z"/><circle class="cls-1" cx="582.36" cy="614.98" r="9.01"/><polyline class="cls-1" points="195.63 130.38 186 130.38 186 107.19 226.25 107.19 226.25 130.38 216.84 130.38"/><polygon class="cls-2" points="206.13 123.6 191.25 140.66 221.22 140.66 206.13 123.6"/><line class="cls-1" x1="141.52" y1="114.56" x2="141.52" y2="173.39"/><line class="cls-1" x1="138.52" y1="131.56" x2="138.52" y2="156.39"/><line class="cls-1" x1="135.52" y1="137.06" x2="135.52" y2="150.89"/><line class="cls-1" x1="132.52" y1="141.56" x2="132.52" y2="146.39"/><line class="cls-1" x1="144.52" y1="124.56" x2="144.52" y2="163.39"/><line class="cls-1" x1="147.52" y1="132.56" x2="147.52" y2="155.39"/><line class="cls-1" x1="150.52" y1="140.56" x2="150.52" y2="147.39"/><line class="cls-1" x1="153.52" y1="136.56" x2="153.52" y2="151.39"/><line class="cls-1" x1="156.52" y1="138.56" x2="156.52" y2="149.39"/><line class="cls-1" x1="159.52" y1="141.56" x2="159.52" y2="146.39"/><rect class="cls-1" x="220.66" y="459.69" width="58.1" height="31.69" rx="5.55" ry="5.55"/><rect class="cls-1" x="231.22" y="455.54" width="36.97" height="4.15"/><rect class="cls-2" x="231.22" y="475.54" width="36.97" height="31.69"/><path class="cls-1" d="M608.33,462.34v21.29a.79.79,0,0,0,1.17.69l19.28-10.64a.79.79,0,0,0,0-1.38L609.5,461.65A.79.79,0,0,0,608.33,462.34Z"/><rect class="cls-1" x="593.8" y="449.61" width="46.75" height="46.75" rx="10.26" ry="10.26"/><path class="cls-2" d="M679.73,267.42l-.47,0a14.93,14.93,0,0,0-28.57,8.11,8.72,8.72,0,0,0,.7,17.4h28.34a12.77,12.77,0,0,0,0-25.53Z"/><path class="cls-3" d="M667.39,310.54a2.11,2.11,0,0,1-1.48-.61l-10.29-10.29a2.09,2.09,0,1,1,3-3l6.72,6.73v-22.9a2.09,2.09,0,1,1,4.17,0v22.9l6.72-6.73a2.09,2.09,0,0,1,3,3l-10.29,10.29a2.11,2.11,0,0,1-1.48.61Z"/><path class="cls-4" d="M667.39,279.43a1.09,1.09,0,0,1,1.09,1.09v25.31l8.43-8.43a1.09,1.09,0,0,1,1.54,1.54l-10.29,10.29a1.09,1.09,0,0,1-1.54,0l-10.29-10.29a1.09,1.09,0,1,1,1.54-1.54l8.43,8.43V280.51a1.09,1.09,0,0,1,1.09-1.09m0-2a3.09,3.09,0,0,0-3.09,3.09V301l-5-5a3.09,3.09,0,1,0-4.37,4.37l10.29,10.29a3.09,3.09,0,0,0,4.37,0l10.29-10.29A3.09,3.09,0,1,0,675.5,296l-5,5V280.51a3.09,3.09,0,0,0-3.09-3.09Z"/><path class="cls-2" d="M145.9,299.16l-.47,0a14.93,14.93,0,0,0-28.57,8.11,8.72,8.72,0,0,0,.7,17.4H145.9a12.77,12.77,0,0,0,0-25.53Z"/><path class="cls-3" d="M133.56,339.27a2.09,2.09,0,0,1-2.09-2.09v-22.9L124.75,321a2.09,2.09,0,1,1-3-3l10.29-10.29a2.09,2.09,0,0,1,3,0l10.29,10.29a2.09,2.09,0,0,1-3,3l-6.72-6.73v22.9A2.09,2.09,0,0,1,133.56,339.27Z"/><path class="cls-4" d="M133.56,308.16a1.1,1.1,0,0,1,.77.32l10.29,10.29a1.09,1.09,0,1,1-1.54,1.54l-8.43-8.43v25.31a1.09,1.09,0,0,1-2.17,0V311.87L124,320.31a1.09,1.09,0,0,1-1.54-1.54l10.29-10.29a1.1,1.1,0,0,1,.77-.32m0-2a3.1,3.1,0,0,0-2.19.91l-10.28,10.29a3.09,3.09,0,0,0,4.37,4.37l5-5v20.48a3.09,3.09,0,0,0,6.17,0V316.7l5,5a3.09,3.09,0,1,0,4.37-4.37l-10.29-10.29a3.1,3.1,0,0,0-2.18-.91Z"/><rect class="cls-4" x="633.48" y="642.65" width="33.07" height="41.89"/><path class="cls-3" d="M665.55,643.65v39.89H634.48V643.65h31.07m2-2H632.48v43.89h35.07V641.65Z"/><rect class="cls-4" x="627.14" y="648.99" width="33.07" height="41.89"/><path class="cls-3" d="M659.21,650v39.89H628.14V650h31.07m2-2H626.14v43.89h35.07V648Z"/><polygon class="cls-5" points="137.15 416.79 116.85 413.54 96.56 416.79 96.56 367.56 137.15 367.56 137.15 416.79"/><polygon class="cls-1" points="116.85 378.79 119.77 387.78 129.22 387.78 121.58 393.33 124.5 402.32 116.85 396.76 109.21 402.32 112.13 393.33 104.48 387.78 113.93 387.78 116.85 378.79"/><polyline class="cls-5" points="144.59 237.17 144.59 249.97 112.92 249.97 112.92 219.9 131.47 219.9"/><path class="cls-1" d="M131,236.85S129.07,225,147,225"/><polyline class="cls-1" points="142.5 218.3 149.54 225.02 142.5 230.94"/><circle class="cls-1" cx="102.84" cy="586.37" r="2.67"/><circle class="cls-1" cx="111.84" cy="586.37" r="2.67"/><circle class="cls-1" cx="120.84" cy="586.37" r="2.67"/><polygon class="cls-1" points="520.27 75.76 484.75 87.91 502.21 92.76 505.79 110.24 520.27 75.76"/><line class="cls-1" x1="502.21" y1="92.76" x2="520.27" y2="75.76"/><path class="cls-1" d="M250.67,97.49a17.75,17.75,0,0,0,34.41-6.1q0-.83-.07-1.64"/><polyline class="cls-1" points="279.5 92.35 285.08 87.42 290.88 92.35"/><path class="cls-1" d="M283.28,83.59a17.75,17.75,0,0,0-33.68,7.8"/><polyline class="cls-1" points="255.29 88.21 249.71 93.14 243.9 88.21"/><circle class="cls-1" cx="601.38" cy="108.16" r="8.28"/><path class="cls-1" d="M617,115.1h0a17.06,17.06,0,1,0-31.14,0h0v0a17,17,0,0,0,1.66,2.9A82.1,82.1,0,0,0,595,128.63a27.85,27.85,0,0,1,5.32,10.56,1.05,1.05,0,0,0,2,0,27.85,27.85,0,0,1,5.32-10.56A82.08,82.08,0,0,0,615.28,118a17,17,0,0,0,1.66-2.9Z"/><path class="cls-5" d="M327.38,74.65a26.88,26.88,0,0,0,24,14,26.09,26.09,0,0,0,23.67-14,26.88,26.88,0,0,0-24-14A26.09,26.09,0,0,0,327.38,74.65Z"/><circle class="cls-5" cx="351.22" cy="74.65" r="4.67"/><circle class="cls-5" cx="351.22" cy="74.65" r="8.67"/><path class="cls-1" d="M94.39,538.34s7.27-3.81,19.73,0,20.77-.85,20.77-.85V512s-8.31,4.65-20.77.85-19.73,0-19.73,0Z"/><line class="cls-1" x1="94.39" y1="530.87" x2="94.39" y2="560.63"/><circle class="cls-1" cx="671.92" cy="442.06" r="14.67"/><line class="cls-6" x1="682.29" y1="452.43" x2="694.42" y2="464.56"/><path class="cls-1" d="M225.21,687.56a9.09,9.09,0,1,1-18.19,0H188.19v24.36H244V687.56Z"/><polyline class="cls-1" points="188.19 687.56 200.85 673.92 232.36 673.92 244.05 687.56"/><circle class="cls-1" cx="127.66" cy="673.21" r="11.16"/><circle class="cls-1" cx="157.18" cy="673.21" r="11.16"/><path class="cls-1" d="M138.63,671.15s3.78-3.58,7.39,0"/><path class="cls-3" d="M116.67,674.73h-2.54a1.53,1.53,0,0,1-1.52-1.52h0a1.53,1.53,0,0,1,1.52-1.52h2.54Z"/><path class="cls-3" d="M168.34,671.68h2.54a1.53,1.53,0,0,1,1.52,1.52h0a1.53,1.53,0,0,1-1.52,1.52h-2.54Z"/><rect class="cls-3" x="297" y="170.45" width="205.99" height="427.1" rx="28.38" ry="28.38"/><polygon class="cls-4" points="493.26 221.57 306.74 221.57 306.74 435.44 493.26 250.2 493.26 221.57"/><polygon class="cls-7" points="306.74 435.44 306.74 546.7 493.26 546.7 493.26 250.2 306.74 435.44"/><circle class="cls-4" cx="400" cy="571.07" r="15.05"/><path class="cls-4" d="M416.38,199.36H383.62a1.4,1.4,0,0,1-1.4-1.4h0a1.4,1.4,0,0,1,1.4-1.4h32.75a1.4,1.4,0,0,1,1.4,1.4h0A1.4,1.4,0,0,1,416.38,199.36Z"/><circle class="cls-4" cx="400" cy="184.13" r="1.95"/><circle class="cls-4" cx="367.57" cy="197.96" r="3.59"/></svg>