<svg id="Artboard_1" data-name="Artboard 1" xmlns="http://www.w3.org/2000/svg" viewBox="0 0 602.53 680.54"><defs><style>.cls-1,.cls-12,.cls-13,.cls-14,.cls-2,.cls-7{fill:none;}.cls-1,.cls-12,.cls-13,.cls-14,.cls-2,.cls-3,.cls-6,.cls-7,.cls-8{stroke:#e95354;}.cls-1,.cls-14,.cls-2,.cls-3,.cls-6,.cls-7,.cls-8{stroke-linecap:round;stroke-linejoin:round;}.cls-1,.cls-12,.cls-13,.cls-2,.cls-3,.cls-6,.cls-7,.cls-8{stroke-width:2px;}.cls-11,.cls-12,.cls-14,.cls-2,.cls-5,.cls-6{opacity:0.6;}.cls-10,.cls-11,.cls-15,.cls-3,.cls-6,.cls-8{fill:#f0ede6;}.cls-4,.cls-5,.cls-9{fill:#e95354;}.cls-10,.cls-13,.cls-7,.cls-8,.cls-9{opacity:0.3;}.cls-12,.cls-13{stroke-miterlimit:10;}.cls-14{stroke-width:3px;}.cls-16{fill:#eae4da;}</style></defs><title>phone</title><path class="cls-1" d="M292.19,148.3v-.16a10.1,10.1,0,0,0-20.19,0,10.1,10.1,0,0,0-20.19,0s-2,13.4,20.18,27.85C292.9,162.38,292.32,149.95,292.19,148.3Z" transform="translate(-93.39 -53.46)"/><circle class="cls-1" cx="456.36" cy="163.5" r="20.06"/><polyline class="cls-1" points="456.36 149.49 456.36 163.5 445.12 163.5"/><rect class="cls-1" x="427.14" y="205.18" width="52.44" height="36.55"/><path class="cls-1" d="M520.53,258.64l22.27,19.44a6,6,0,0,0,7.9,0L573,258.64" transform="translate(-93.39 -53.46)"/><line class="cls-1" x1="479.58" y1="241.72" x2="458.85" y2="223.78"/><line class="cls-1" x1="427.1" y1="241.72" x2="447.83" y2="223.78"/><polygon class="cls-1" points="447.29 263.01 452.57 279.24 469.63 279.24 455.83 289.28 461.1 305.51 447.29 295.48 433.49 305.51 438.76 289.28 424.96 279.24 442.02 279.24 447.29 263.01"/><rect class="cls-2" x="76.23" y="184.06" width="58.29" height="36.04" rx="4.52" ry="4.52"/><circle class="cls-1" cx="105.37" cy="202.09" r="12.42"/><polygon class="cls-1" points="91.99 184.06 98.2 177.61 113.97 177.61 119.94 184.06 91.99 184.06"/><rect class="cls-1" x="82.44" y="179.28" width="6.21" height="4.78"/><polygon class="cls-1" points="513.78 474.02 513.78 486.43 522.7 486.43 532.78 494.58 532.78 465.88 523.28 474.04 513.78 474.02"/><path class="cls-1" d="M635.2,525.35s6.59,8.34,0,16.68" transform="translate(-93.39 -53.46)"/><path class="cls-2" d="M643.13,521.47s8.88,12.22,0,24.43" transform="translate(-93.39 -53.46)"/><path class="cls-2" d="M650.26,515.26s13.09,18.42,0,36.84" transform="translate(-93.39 -53.46)"/><polyline class="cls-2" points="208.93 71.37 229.12 53.11 219.02 43.49 219.02 80.99 229.12 69.93 208.93 51.18"/><path class="cls-1" d="M408.7,146a10.88,10.88,0,0,0-15.39,0h0l7.7,7.7Z" transform="translate(-93.39 -53.46)"/><path class="cls-1" d="M401,135.54a18.08,18.08,0,0,1,12.82,5.32l5.13-5.13a25.36,25.36,0,0,0-35.86,0l0,0,5.13,5.13A18.08,18.08,0,0,1,401,135.54Z" transform="translate(-93.39 -53.46)"/><path class="cls-2" d="M401,121.63a32,32,0,0,1,22.65,9.4l5.13-5.13a39.24,39.24,0,0,0-55.49-.07l-.07.07,5.13,5.13A32,32,0,0,1,401,121.63Z" transform="translate(-93.39 -53.46)"/><rect class="cls-1" x="138.42" y="312.7" width="47.24" height="64.59" rx="4.34" ry="4.34"/><rect class="cls-1" x="144.51" y="320.82" width="35.06" height="8.12"/><rect class="cls-1" x="144.51" y="335.21" width="9.13" height="9.13"/><rect class="cls-1" x="157.47" y="335.21" width="9.13" height="9.13"/><rect class="cls-1" x="144.51" y="348.31" width="9.13" height="9.13"/><rect class="cls-1" x="157.47" y="348.31" width="9.13" height="9.13"/><rect class="cls-1" x="144.51" y="361.6" width="9.13" height="9.13"/><rect class="cls-1" x="157.47" y="361.6" width="9.13" height="9.13"/><rect class="cls-1" x="170.44" y="335.21" width="9.13" height="9.13"/><rect class="cls-1" x="170.3" y="348.31" width="9.41" height="22.42"/><path class="cls-1" d="M252.06,278.09S249.5,259,263.83,259c13.63,0,11.17,19.1,11.17,19.1" transform="translate(-93.39 -53.46)"/><rect class="cls-3" x="151.93" y="222.62" width="36.53" height="27.59"/><path class="cls-1" d="M267.69,285.74a4.13,4.13,0,1,0-5.66,3.83,1.62,1.62,0,0,0-.11.57v6.34a1.64,1.64,0,0,0,3.28,0h0v-6.34a1.61,1.61,0,0,0-.11-.57A4.13,4.13,0,0,0,267.69,285.74Z" transform="translate(-93.39 -53.46)"/><circle class="cls-1" cx="514.61" cy="274.42" r="26.88"/><line class="cls-1" x1="514.63" y1="251.01" x2="514.63" y2="253.36"/><line class="cls-1" x1="510.58" y1="251.38" x2="510.99" y2="253.7"/><line class="cls-1" x1="506.66" y1="252.44" x2="507.46" y2="254.66"/><line class="cls-1" x1="502.98" y1="254.18" x2="504.16" y2="256.22"/><line class="cls-1" x1="499.66" y1="256.52" x2="501.18" y2="258.32"/><line class="cls-1" x1="496.8" y1="259.41" x2="498.6" y2="260.92"/><line class="cls-1" x1="494.48" y1="262.74" x2="496.52" y2="263.92"/><line class="cls-1" x1="492.78" y1="266.43" x2="494.99" y2="267.24"/><line class="cls-1" x1="491.74" y1="270.36" x2="494.06" y2="270.77"/><line class="cls-1" x1="491.4" y1="274.41" x2="493.76" y2="274.41"/><line class="cls-1" x1="491.77" y1="278.46" x2="494.09" y2="278.05"/><line class="cls-1" x1="492.84" y1="282.38" x2="495.05" y2="281.58"/><line class="cls-1" x1="494.57" y1="286.06" x2="496.61" y2="284.88"/><line class="cls-1" x1="496.92" y1="289.38" x2="498.72" y2="287.87"/><line class="cls-1" x1="499.8" y1="292.24" x2="501.32" y2="290.44"/><line class="cls-1" x1="503.14" y1="294.56" x2="504.32" y2="292.52"/><line class="cls-1" x1="506.83" y1="296.26" x2="507.64" y2="294.05"/><line class="cls-1" x1="510.76" y1="297.3" x2="511.17" y2="294.98"/><line class="cls-1" x1="514.81" y1="297.64" x2="514.81" y2="295.28"/><line class="cls-1" x1="518.86" y1="297.27" x2="518.45" y2="294.95"/><line class="cls-1" x1="522.78" y1="296.2" x2="521.97" y2="293.99"/><line class="cls-1" x1="526.46" y1="294.47" x2="525.28" y2="292.43"/><line class="cls-1" x1="529.78" y1="292.12" x2="528.26" y2="290.32"/><line class="cls-1" x1="532.64" y1="289.24" x2="530.83" y2="287.73"/><line class="cls-1" x1="534.96" y1="285.9" x2="532.92" y2="284.72"/><line class="cls-1" x1="536.66" y1="282.21" x2="534.45" y2="281.41"/><line class="cls-1" x1="537.7" y1="278.28" x2="535.38" y2="277.87"/><line class="cls-1" x1="538.03" y1="274.23" x2="535.68" y2="274.23"/><line class="cls-1" x1="537.66" y1="270.18" x2="535.35" y2="270.59"/><line class="cls-1" x1="536.6" y1="266.26" x2="534.38" y2="267.07"/><line class="cls-1" x1="534.86" y1="262.59" x2="532.83" y2="263.76"/><line class="cls-1" x1="532.52" y1="259.27" x2="530.72" y2="260.78"/><line class="cls-1" x1="529.64" y1="256.4" x2="528.12" y2="258.21"/><line class="cls-1" x1="526.3" y1="254.09" x2="525.12" y2="256.12"/><line class="cls-1" x1="522.61" y1="252.38" x2="521.8" y2="254.59"/><line class="cls-1" x1="518.68" y1="251.35" x2="518.27" y2="253.66"/><polygon class="cls-1" points="531.66 259.99 511.48 270.54 497.6 289.47 518.4 278.55 531.66 259.99"/><line class="cls-1" x1="518.4" y1="278.55" x2="511.48" y2="270.54"/><path class="cls-1" d="M556,579.93s15.19-4.56,29.24,0v-43.8c-14-4.56-29.24,0-29.24,0Z" transform="translate(-93.39 -53.46)"/><path class="cls-1" d="M556,579.93s-15.19-4.56-29.24,0v-43.8c14-4.56,29.24,0,29.24,0Z" transform="translate(-93.39 -53.46)"/><circle class="cls-2" cx="87.95" cy="133.62" r="17.4"/><line class="cls-1" x1="87.95" y1="125.71" x2="87.95" y2="141.13"/><line class="cls-2" x1="80.24" y1="133.42" x2="95.66" y2="133.42"/><circle class="cls-2" cx="85.54" cy="478.64" r="17.4"/><line class="cls-2" x1="77.83" y1="478.44" x2="93.26" y2="478.44"/><line class="cls-2" x1="362.98" y1="98.31" x2="362.98" y2="63.61"/><line class="cls-2" x1="353.52" y1="73.08" x2="362.98" y2="63.61"/><line class="cls-2" x1="372.44" y1="73.08" x2="362.98" y2="63.61"/><line class="cls-2" x1="381.46" y1="63.61" x2="381.46" y2="98.31"/><line class="cls-1" x1="390.92" y1="88.85" x2="381.46" y2="98.31"/><line class="cls-1" x1="371.99" y1="88.85" x2="381.46" y2="98.31"/><path class="cls-1" d="M619.35,259.28a18.06,18.06,0,0,1-15.22-27.82,18.07,18.07,0,1,0,21.4,26.71A18,18,0,0,1,619.35,259.28Z" transform="translate(-93.39 -53.46)"/><path class="cls-1" d="M243.43,326.85H227.36L203.29,302.1a1,1,0,0,0-1.62,1l7.84,23.76H187v-3.49a2.63,2.63,0,0,0-2.09-2.64,2.53,2.53,0,0,0-2.95,2.48v17.37a2.63,2.63,0,0,0,2.09,2.64,2.53,2.53,0,0,0,2.95-2.48V337.1h22.5l-7.9,24a.93.93,0,0,0,1.55.94l24.22-24.89H243.6a5.13,5.13,0,0,0,5-6.21A5.23,5.23,0,0,0,243.43,326.85Z" transform="translate(-93.39 -53.46)"/><path class="cls-1" d="M348.19,131.36A11.78,11.78,0,1,0,360,143.15" transform="translate(-93.39 -53.46)"/><polygon class="cls-4" points="254.8 73.32 254.8 84.45 263.64 78.89 254.8 73.32"/><path class="cls-2" d="M275.7,702.74a11.78,11.78,0,1,1,11.78,11.78" transform="translate(-93.39 -53.46)"/><polygon class="cls-5" points="177.73 649.28 188.85 649.28 183.29 658.11 177.73 649.28"/><polyline class="cls-1" points="490.77 129.74 501.66 141.18 519.36 114.7"/><path class="cls-1" d="M559.64,511.44a23.91,23.91,0,1,0-24.93,0" transform="translate(-93.39 -53.46)"/><path class="cls-1" d="M557.34,507.68a19.5,19.5,0,1,0-20.33,0" transform="translate(-93.39 -53.46)"/><path class="cls-1" d="M539.3,503.92a15.09,15.09,0,1,1,15.73,0" transform="translate(-93.39 -53.46)"/><path class="cls-1" d="M555,503.92a15.09,15.09,0,1,0-15.73,0" transform="translate(-93.39 -53.46)"/><path class="cls-1" d="M552.72,500.14a10.67,10.67,0,1,0-11.1,0" transform="translate(-93.39 -53.46)"/><path class="cls-1" d="M543.91,496.39a6.26,6.26,0,1,1,6.51,0" transform="translate(-93.39 -53.46)"/><path class="cls-1" d="M550.43,496.39a6.26,6.26,0,1,0-6.51,0" transform="translate(-93.39 -53.46)"/><circle class="cls-4" cx="453.78" cy="437.53" r="2.49"/><path class="cls-1" d="M540.68,122.17c-18.48,0-33.45,12.26-33.45,27.38,0,10.38,7,19.4,17.44,24,0,0-3.24,6.46-6.23,7.59,0,0,8.42-1.19,13.43-5.22a40.46,40.46,0,0,0,8.81,1c18.48,0,33.45-12.26,33.45-27.38S559.16,122.17,540.68,122.17Z" transform="translate(-93.39 -53.46)"/><path class="cls-1" d="M266.54,556.21a19.75,19.75,0,1,0-30.75,16.39c-.1-1.25-.18-2.44-.21-3.5V568a16.24,16.24,0,1,1,23-.56L258,568v1.14c0,1-.12,2.25-.21,3.5A19.74,19.74,0,0,0,266.54,556.21Z" transform="translate(-93.39 -53.46)"/><path class="cls-1" d="M276.59,556.21a29.8,29.8,0,1,0-39.53,28.16c-.14-1.12-.31-2.47-.48-3.93a26.29,26.29,0,1,1,20.42,0c-.17,1.46-.34,2.81-.48,3.93A29.84,29.84,0,0,0,276.59,556.21Z" transform="translate(-93.39 -53.46)"/><circle class="cls-1" cx="153.4" cy="500.65" r="7.01"/><path class="cls-1" d="M246.79,591.62a4.94,4.94,0,0,0,5.14-4.67s1.64-11.69,1.87-18-7-4.91-7-4.91-7.24-1.4-7,4.91,1.87,18,1.87,18A4.94,4.94,0,0,0,246.79,591.62Z" transform="translate(-93.39 -53.46)"/><path class="cls-1" d="M570.87,393.34v24.6a3.44,3.44,0,0,1-2.89,3.4c-6.43,1.07-13.11,3.47-12,10.58,1.29,8.19,9.91,7.11,9.91,7.11,8.62,0,9-8.19,9-8.19V378.61a1,1,0,0,0-1-1l-.22,0-37.32,8.1a1.26,1.26,0,0,0-1,1.27c.15,5.4.32,30,.13,38.27a3,3,0,0,1-2.54,2.92c-6.56,1-13.54,3.39-12.39,10.65,1.29,8.19,9.91,7.11,9.91,7.11,8.62,0,9-8.19,9-8.19V399.8Z" transform="translate(-93.39 -53.46)"/><path class="cls-1" d="M228.06,166.94a1.24,1.24,0,0,0-1.34-.47c-2.66.75-10.58,3.86-9.06,13.86,1.82,12,24.15,42.36,50.15,46.36a1.29,1.29,0,0,0,.29,0,10.94,10.94,0,0,0,10.16-9.61,1.23,1.23,0,0,0-.59-1.22l-14.41-8.8a1.25,1.25,0,0,0-1.12-.09L254,210.3a1.24,1.24,0,0,1-1.18-.13c-2.5-1.75-12.83-9.31-18.62-19.06a1.25,1.25,0,0,1,0-1.25l4.21-7.53a1.25,1.25,0,0,0-.08-1.34Z" transform="translate(-93.39 -53.46)"/><circle class="cls-2" cx="323.94" cy="17.59" r="16.59"/><path class="cls-6" d="M448.66,72.73h-.5a16.06,16.06,0,0,0-30.75,8.73,9.38,9.38,0,0,0,.76,18.73h30.49a13.74,13.74,0,0,0,0-27.48Z" transform="translate(-93.39 -53.46)"/><path class="cls-1" d="M521,653.23s0-11-9-17.5-10-34.5,14.5-34.5,23.5,28,14.5,34.5-9,17.5-9,17.5Z" transform="translate(-93.39 -53.46)"/><line class="cls-1" x1="424.52" y1="573.77" x2="441.68" y2="573.77"/><line class="cls-1" x1="433.1" y1="573.77" x2="433.1" y2="595.77"/><line class="cls-1" x1="427.1" y1="603.61" x2="438.77" y2="603.61"/><line class="cls-1" x1="428.52" y1="607.94" x2="437.35" y2="607.94"/><line class="cls-1" x1="430.35" y1="612.11" x2="435.52" y2="612.11"/><path class="cls-2" d="M643.09,221.95h0a8.49,8.49,0,0,1-8.47-8.47V190.55a8.49,8.49,0,0,1,8.47-8.47h0a8.49,8.49,0,0,1,8.47,8.47v22.93A8.49,8.49,0,0,1,643.09,221.95Z" transform="translate(-93.39 -53.46)"/><path class="cls-2" d="M655.79,202v11.47a12.7,12.7,0,0,1-25.4,0h0v-11" transform="translate(-93.39 -53.46)"/><line class="cls-2" x1="549.7" y1="172.72" x2="549.7" y2="181.41"/><line class="cls-2" x1="542.23" y1="181.41" x2="557.31" y2="181.41"/><polygon class="cls-1" points="210.24 570.44 223.57 570.44 210.24 557.11 210.24 570.44"/><polygon class="cls-1" points="210.24 557.11 180.9 557.11 180.9 613.11 223.57 613.11 223.57 570.44 210.24 557.11"/><circle class="cls-2" cx="548.77" cy="539.48" r="21.43"/><line class="cls-2" x1="548.77" y1="518.05" x2="548.77" y2="560.91"/><path class="cls-2" d="M639.12,614.15s-7-6.1-7-21.21,7-21.21,7-21.21" transform="translate(-93.39 -53.46)"/><path class="cls-2" d="M645.54,614.15s7-6.1,7-21.21-7-21.21-7-21.21" transform="translate(-93.39 -53.46)"/><line class="cls-2" x1="527.34" y1="539.48" x2="570.2" y2="539.48"/><path class="cls-2" d="M658.8,606.55c-3.4-1.82-8.81-3.71-16.65-3.71a35.17,35.17,0,0,0-16.27,3.52" transform="translate(-93.39 -53.46)"/><path class="cls-2" d="M625.89,580.28c3.4,1.82,8.81,3.71,16.65,3.71a35.17,35.17,0,0,0,16.27-3.52" transform="translate(-93.39 -53.46)"/><circle class="cls-1" cx="143.39" cy="580.1" r="17.66"/><polygon class="cls-1" points="143.39 568.75 136.66 590.19 143.39 584.3 149.9 590.19 143.39 568.75"/><line class="cls-1" x1="530.45" y1="332.03" x2="530.45" y2="356.71"/><circle class="cls-3" cx="530.45" cy="349.03" r="3.2"/><circle class="cls-2" cx="530.45" cy="349.03" r="22.67"/><path class="cls-1" d="M621.69,379.19v-2.47a2.34,2.34,0,0,1,2.33-2.33h0a2.34,2.34,0,0,1,2.33,2.33v2.47" transform="translate(-93.39 -53.46)"/><rect class="cls-2" x="642.12" y="379.82" width="3.48" height="5.29" rx="1.13" ry="1.13" transform="translate(-175.25 513.84) rotate(-45)"/><line class="cls-2" x1="549.25" y1="330.23" x2="546.47" y2="333.01"/><rect class="cls-2" x="351.36" y="635.41" width="13.26" height="10.36"/><rect class="cls-2" x="367.52" y="622.29" width="13.26" height="23.47"/><rect class="cls-2" x="383.69" y="595.46" width="13.26" height="50.31"/><rect class="cls-2" x="399.85" y="610.7" width="13.26" height="35.07"/><path class="cls-5" d="M506.5,704H444.75a1.24,1.24,0,0,1,0-2.49H506.5a1.24,1.24,0,0,1,0,2.49Z" transform="translate(-93.39 -53.46)"/><circle class="cls-1" cx="269.64" cy="584.95" r="22.67"/><circle class="cls-1" cx="269.64" cy="584.95" r="14.17"/><circle class="cls-1" cx="269.64" cy="584.95" r="6.96"/><line class="cls-1" x1="269.64" y1="584.95" x2="285.66" y2="568.93"/><path class="cls-2" d="M189.38,641.39H177.71V616.6h-2.92v24.79H163.12a1.46,1.46,0,0,0,0,2.92h26.25a1.46,1.46,0,0,0,0-2.92Z" transform="translate(-93.39 -53.46)"/><path class="cls-2" d="M204.87,608.7H147.63l.73-21.41a4.13,4.13,0,0,1,4.11-4.11H200a4.13,4.13,0,0,1,4.11,4.11Z" transform="translate(-93.39 -53.46)"/><path class="cls-2" d="M144.71,611.68s1.34,3,3,3h55.54c1.64,0,3-3,3-3Z" transform="translate(-93.39 -53.46)"/><path class="cls-2" d="M153.46,583.18v-3.34a4.07,4.07,0,0,1,4.07-4.07h6.38" transform="translate(-93.39 -53.46)"/><path class="cls-2" d="M172.63,578.44h-5.89a2.83,2.83,0,0,1-2.83-2.83h0a2.83,2.83,0,0,1,2.83-2.83h5.89a2.83,2.83,0,0,1,2.83,2.83h0a2.83,2.83,0,0,1-2.83,2.83Z" transform="translate(-93.39 -53.46)"/><rect class="cls-2" x="42.41" y="399.03" width="43.33" height="37.33" rx="6.22" ry="6.22"/><polygon class="cls-1" points="85.74 411.03 102.74 402.03 102.74 433.03 85.74 425.03 85.74 411.03"/><line class="cls-1" x1="99.57" y1="403.71" x2="99.57" y2="431.51"/><path class="cls-2" d="M380.24,701.2a4.45,4.45,0,0,1,4.45-4.45h0V684h-59v12.75a4.45,4.45,0,1,1,0,8.9V718.4h59V705.65a4.45,4.45,0,0,1-4.45-4.45Z" transform="translate(-93.39 -53.46)"/><line class="cls-2" x1="283.61" y1="633.53" x2="283.61" y2="661.95"/><line class="cls-2" x1="240.35" y1="633.53" x2="240.35" y2="661.95"/><path class="cls-1" d="M412.07,640.81v20.9h38.39v-20.9H453a1.21,1.21,0,0,0,.87-2l-22.33-23.23-23.06,23.23a1.2,1.2,0,0,0,.85,2Z" transform="translate(-93.39 -53.46)"/><polygon class="cls-1" points="321.63 566.06 321.63 568.52 322.5 568.52 322.5 577.81 327.98 572.3 327.98 568.52 328.86 568.52 328.86 566.06 321.63 566.06"/><rect class="cls-1" x="331.99" y="590.85" width="11.75" height="17.4"/><rect class="cls-1" x="335.04" y="581.45" width="5.65" height="5.65" rx="1.56" ry="1.56"/><polyline class="cls-2" points="545.55 89.73 556.2 101.49 556.2 73.31"/><line class="cls-2" x1="556.2" y1="101.49" x2="566.18" y2="89.95"/><polyline class="cls-2" points="337.4 660.19 324.85 646.34 324.85 679.54"/><line class="cls-2" x1="324.85" y1="646.34" x2="313.09" y2="659.93"/><polyline class="cls-2" points="578.23 310.62 592.24 297.92 558.66 297.92"/><line class="cls-2" x1="592.24" y1="297.92" x2="578.49" y2="286.03"/><rect class="cls-2" x="71.51" y="333.82" width="38.01" height="38.01" rx="7.27" ry="7.27"/><circle class="cls-3" cx="107.22" cy="335.79" r="5.73"/><line class="cls-2" x1="459.71" y1="618.97" x2="496.58" y2="627.24"/><rect class="cls-2" x="454.92" y="627.24" width="50.72" height="36.59" rx="3.93" ry="3.93"/><circle class="cls-2" cx="497.22" cy="635" r="2.67"/><circle class="cls-2" cx="497.22" cy="644.62" r="2.67"/><path class="cls-1" d="M596.19,648.64h-14a8.86,8.86,0,0,1-8.83-8.83h0a8.86,8.86,0,0,1,8.83-8.83h14a8.86,8.86,0,0,1,8.83,8.83h0A8.86,8.86,0,0,1,596.19,648.64Z" transform="translate(-93.39 -53.46)"/><circle class="cls-1" cx="502.63" cy="586.35" r="9.01"/><path class="cls-1" d="M582.19,606.15h14A8.86,8.86,0,0,1,605,615h0a8.86,8.86,0,0,1-8.83,8.83h-14a8.86,8.86,0,0,1-8.83-8.83h0A8.86,8.86,0,0,1,582.19,606.15Z" transform="translate(-93.39 -53.46)"/><circle class="cls-1" cx="488.97" cy="561.52" r="9.01"/><polyline class="cls-2" points="102.24 76.92 92.61 76.92 92.61 53.73 132.86 53.73 132.86 76.92 123.45 76.92"/><polygon class="cls-3" points="112.74 70.14 97.86 87.2 127.83 87.2 112.74 70.14"/><line class="cls-7" x1="48.13" y1="61.1" x2="48.13" y2="119.93"/><line class="cls-7" x1="45.13" y1="78.1" x2="45.13" y2="102.93"/><line class="cls-7" x1="42.13" y1="83.6" x2="42.13" y2="97.43"/><line class="cls-7" x1="39.13" y1="88.1" x2="39.13" y2="92.93"/><line class="cls-7" x1="51.13" y1="71.1" x2="51.13" y2="109.93"/><line class="cls-7" x1="54.13" y1="79.1" x2="54.13" y2="101.93"/><line class="cls-7" x1="57.13" y1="87.1" x2="57.13" y2="93.93"/><line class="cls-7" x1="60.13" y1="83.1" x2="60.13" y2="97.93"/><line class="cls-2" x1="63.13" y1="85.1" x2="63.13" y2="95.93"/><line class="cls-2" x1="66.13" y1="88.1" x2="66.13" y2="92.93"/><rect class="cls-1" x="127.27" y="406.23" width="58.1" height="31.69" rx="5.55" ry="5.55"/><rect class="cls-1" x="137.83" y="402.08" width="36.97" height="4.15"/><rect class="cls-3" x="137.83" y="422.08" width="36.97" height="31.69"/><path class="cls-1" d="M608.33,462.34v21.29a.79.79,0,0,0,1.17.69l19.28-10.64a.79.79,0,0,0,0-1.38L609.5,461.65a.79.79,0,0,0-1.17.69Z" transform="translate(-93.39 -53.46)"/><rect class="cls-2" x="500.41" y="396.15" width="46.75" height="46.75" rx="10.26" ry="10.26"/><path class="cls-8" d="M679.73,267.42h-.47a14.93,14.93,0,0,0-28.57,8.11,8.72,8.72,0,0,0,.7,17.4h28.34a12.77,12.77,0,0,0,0-25.53Z" transform="translate(-93.39 -53.46)"/><path class="cls-9" d="M667.39,310.54a2.11,2.11,0,0,1-1.48-.61l-10.29-10.29a2.12,2.12,0,0,1,3-3l6.72,6.73v-22.9a2.09,2.09,0,1,1,4.17,0v22.9l6.72-6.73a2.12,2.12,0,0,1,3,3l-10.29,10.29a2.11,2.11,0,0,1-1.48.61Z" transform="translate(-93.39 -53.46)"/><path class="cls-10" d="M667.39,279.43a1.09,1.09,0,0,1,1.09,1.09h0v25.31l8.43-8.43a1.09,1.09,0,0,1,1.54,1.54l-10.29,10.29a1.09,1.09,0,0,1-1.54,0l-10.29-10.29a1.09,1.09,0,0,1,1.47-1.61l.07.07,8.43,8.43V280.51a1.09,1.09,0,0,1,1.09-1.09h0m0-2a3.09,3.09,0,0,0-3.09,3.09h0V301l-5-5a3.09,3.09,0,0,0-4.37,4.37l10.29,10.29a3.09,3.09,0,0,0,4.37,0h0l10.29-10.29A3.09,3.09,0,0,0,675.5,296h0l-5,5V280.51a3.09,3.09,0,0,0-3.09-3.09h0Z" transform="translate(-93.39 -53.46)"/><path class="cls-6" d="M145.9,299.16h-.47a14.93,14.93,0,0,0-28.57,8.11,8.72,8.72,0,0,0,.7,17.4H145.9a12.77,12.77,0,0,0,0-25.53Z" transform="translate(-93.39 -53.46)"/><path class="cls-5" d="M133.56,339.27a2.09,2.09,0,0,1-2.09-2.09v-22.9L124.75,321a2.12,2.12,0,0,1-3-3L132,307.71a2.09,2.09,0,0,1,3,0l0,0L145.33,318a2.12,2.12,0,0,1-3,3l-6.72-6.73v22.9A2.09,2.09,0,0,1,133.56,339.27Z" transform="translate(-93.39 -53.46)"/><path class="cls-11" d="M133.56,308.16a1.1,1.1,0,0,1,.77.32l10.29,10.29a1.09,1.09,0,0,1-1.47,1.61l-.07-.07-8.43-8.43v25.31a1.09,1.09,0,0,1-2.17,0V311.87L124,320.31a1.09,1.09,0,0,1-1.54-1.54l10.29-10.29a1.1,1.1,0,0,1,.77-.32m0-2a3.1,3.1,0,0,0-2.19.91l-10.28,10.29a3.09,3.09,0,1,0,4.37,4.37h0l5-5v20.48a3.09,3.09,0,0,0,6.17,0V316.7l5,5a3.09,3.09,0,1,0,4.37-4.37h0L135.67,307a3.1,3.1,0,0,0-2.18-.91Z" transform="translate(-93.39 -53.46)"/><rect class="cls-10" x="540.09" y="589.19" width="33.07" height="41.89"/><path class="cls-9" d="M665.55,643.65v39.89H634.48V643.65h31.07m2-2H632.48v43.89h35.07Z" transform="translate(-93.39 -53.46)"/><rect class="cls-10" x="533.75" y="595.53" width="33.07" height="41.89"/><path class="cls-9" d="M659.21,650v39.89H628.14V650h31.07m2-2H626.14v43.89h35.07Z" transform="translate(-93.39 -53.46)"/><polygon class="cls-12" points="43.76 363.33 23.46 360.08 3.17 363.33 3.17 314.1 43.76 314.1 43.76 363.33"/><polygon class="cls-2" points="23.46 325.33 26.38 334.32 35.83 334.32 28.19 339.87 31.11 348.86 23.46 343.3 15.82 348.86 18.74 339.87 11.09 334.32 20.54 334.32 23.46 325.33"/><polyline class="cls-13" points="51.2 183.71 51.2 196.51 19.53 196.51 19.53 166.44 38.08 166.44"/><path class="cls-7" d="M131,236.85S129.07,225,147,225" transform="translate(-93.39 -53.46)"/><polyline class="cls-7" points="49.11 164.84 56.15 171.56 49.11 177.48"/><circle class="cls-7" cx="9.45" cy="532.91" r="2.67"/><circle class="cls-7" cx="18.45" cy="532.91" r="2.67"/><circle class="cls-2" cx="27.45" cy="532.91" r="2.67"/><polygon class="cls-2" points="426.88 22.3 391.36 34.45 408.82 39.3 412.4 56.78 426.88 22.3"/><line class="cls-2" x1="408.82" y1="39.3" x2="426.88" y2="22.3"/><path class="cls-2" d="M250.67,97.49a17.75,17.75,0,0,0,34.41-6.1q0-.83-.07-1.64" transform="translate(-93.39 -53.46)"/><polyline class="cls-2" points="186.11 38.89 191.69 33.96 197.49 38.89"/><path class="cls-2" d="M283.28,83.59a17.75,17.75,0,0,0-33.68,7.8" transform="translate(-93.39 -53.46)"/><polyline class="cls-2" points="161.9 34.75 156.32 39.68 150.51 34.75"/><circle class="cls-2" cx="507.99" cy="54.7" r="8.28"/><path class="cls-2" d="M617,115.1h0a17.06,17.06,0,1,0-31.14,0h0a17,17,0,0,0,1.66,2.9A82.1,82.1,0,0,0,595,128.63a27.85,27.85,0,0,1,5.32,10.56,1.05,1.05,0,0,0,2,0,27.85,27.85,0,0,1,5.32-10.56A82.08,82.08,0,0,0,615.28,118a17,17,0,0,0,1.66-2.9Z" transform="translate(-93.39 -53.46)"/><path class="cls-12" d="M327.38,74.65a26.88,26.88,0,0,0,24,14,26.09,26.09,0,0,0,23.67-14,26.88,26.88,0,0,0-24-14A26.09,26.09,0,0,0,327.38,74.65Z" transform="translate(-93.39 -53.46)"/><circle class="cls-12" cx="257.83" cy="21.19" r="4.67"/><circle class="cls-12" cx="257.83" cy="21.19" r="8.67"/><path class="cls-7" d="M94.39,538.34s7.27-3.81,19.73,0,20.77-.85,20.77-.85V512s-8.31,4.65-20.77.85-19.73,0-19.73,0Z" transform="translate(-93.39 -53.46)"/><line class="cls-2" x1="1" y1="477.41" x2="1" y2="507.17"/><circle class="cls-2" cx="578.53" cy="388.6" r="14.67"/><line class="cls-14" x1="588.9" y1="398.97" x2="601.03" y2="411.1"/><path class="cls-2" d="M225.21,687.56a9.1,9.1,0,1,1-18.19,0H188.19v24.36H244V687.56Z" transform="translate(-93.39 -53.46)"/><polyline class="cls-2" points="94.8 634.1 107.46 620.46 138.97 620.46 150.66 634.1"/><circle class="cls-2" cx="34.27" cy="619.75" r="11.16"/><circle class="cls-2" cx="63.79" cy="619.75" r="11.16"/><path class="cls-2" d="M138.63,671.15s3.78-3.58,7.39,0" transform="translate(-93.39 -53.46)"/><path class="cls-5" d="M116.67,674.73h-2.54a1.53,1.53,0,0,1-1.52-1.52h0a1.53,1.53,0,0,1,1.52-1.52h2.54Z" transform="translate(-93.39 -53.46)"/><path class="cls-5" d="M168.34,671.68h2.54a1.53,1.53,0,0,1,1.52,1.52h0a1.53,1.53,0,0,1-1.52,1.52h-2.54Z" transform="translate(-93.39 -53.46)"/><rect class="cls-4" x="203.61" y="116.99" width="205.99" height="427.1" rx="28.38" ry="28.38"/><polygon class="cls-15" points="399.87 168.11 213.35 168.11 213.35 381.98 399.87 196.74 399.87 168.11"/><polygon class="cls-16" points="213.35 381.98 213.35 493.24 399.87 493.24 399.87 196.74 213.35 381.98"/><circle class="cls-15" cx="306.61" cy="517.61" r="15.05"/><path class="cls-15" d="M416.38,199.36H383.62a1.4,1.4,0,0,1-1.4-1.4h0a1.4,1.4,0,0,1,1.4-1.4h32.75a1.4,1.4,0,0,1,1.4,1.4h0A1.4,1.4,0,0,1,416.38,199.36Z" transform="translate(-93.39 -53.46)"/><circle class="cls-15" cx="306.61" cy="130.67" r="1.95"/><circle class="cls-15" cx="274.18" cy="144.5" r="3.59"/></svg>